<svg id="Слой_1" data-name="Слой 1" xmlns="http://www.w3.org/2000/svg" viewBox="0 0 340.52 155.9" fill="#028CDE"><defs><style>.cls-1{fill:#028CDE;}.cls-2{fill:#028CDE;}</style></defs><title>Logo-color-RGB</title><path class="cls-1" d="M132,100.82l0-18-43.88-.08,9.12-16.9,34.74.08A33,33,0,1,0,103.15,17L86.53,47.81,33,47.68l0,18,43.9.1L67.7,82.7,33,82.63a33,33,0,1,0,29.18,48.28l16.29-30.19ZM118.75,26l.15-.27A15,15,0,1,1,132,47.91L107,47.85ZM46.28,122.4l-.05.1a15,15,0,1,1-13.28-21.87l25.06,0Z"/><path class="cls-1" d="M219,101.68a.93.93,0,0,1-.73-.26c-.73-.75-.69-3.15-.63-6.78v-.45c.11-6.17.24-13.84-5.81-18.64a18.72,18.72,0,0,0-12.29-4A51,51,0,0,0,185.28,74l-.34.1V84.78l.64-.22a40.64,40.64,0,0,1,13-2.61c4.15,0,6.07,1.12,6.7,1.59,1.12.85,1.4,2.12,1.61,3.7a25.24,25.24,0,0,0-7.25-1.06c-13.29,0-18,6.7-18,13,0,5.37,3.81,10.07,9.93,12.28a21.35,21.35,0,0,0,19-2.43,10.08,10.08,0,0,0,7.22,2.95,8.65,8.65,0,0,0,2.19-.27l.36-.09V101.41l-.6.15A3.14,3.14,0,0,1,219,101.68ZM206.86,99.4a9.55,9.55,0,0,1-8.22,4.07c-2.85,0-7-1.56-7-4.39,0-2,3.65-3.67,7.81-3.67,2.5,0,5.83.75,7.1,2A1.51,1.51,0,0,1,206.86,99.4Z"/><path class="cls-1" d="M162.64,102.64a20.58,20.58,0,0,1-8.9-1.8A8.74,8.74,0,0,1,149,96h29V91.67a20.13,20.13,0,1,0-40.27,0c0,6.77,3.77,13.15,10.09,17.06A26.69,26.69,0,0,0,162,112.65a31.35,31.35,0,0,0,12.94-2.86l.28-.13V99.82l-.68.31A29.43,29.43,0,0,1,162.64,102.64Zm-4.54-21.52a9.27,9.27,0,0,1,9.18,6.2H149A10.08,10.08,0,0,1,158.11,81.12Z"/><path class="cls-1" d="M285.05,102.64a20.58,20.58,0,0,1-8.9-1.8A8.74,8.74,0,0,1,271.43,96h29V91.67a20.13,20.13,0,1,0-40.27,0c0,6.77,3.77,13.15,10.09,17.06a26.7,26.7,0,0,0,14.09,3.92,31.35,31.35,0,0,0,12.94-2.86l.28-.13V99.82l-.68.31A29.44,29.44,0,0,1,285.05,102.64Zm-4.54-21.52a9.27,9.27,0,0,1,9.18,6.2H271.38A10.08,10.08,0,0,1,280.52,81.12Z"/><path class="cls-1" d="M256.63,102.19a13.67,13.67,0,0,0,.33-2.92,10.1,10.1,0,0,0-1.62-5.62c-2.86-4.36-8.32-5.45-13.14-6.41l-.83-.15c-1.66-.3-4.74-.85-5.54-2.13a1.27,1.27,0,0,1-.12-1.13,2,2,0,0,1,1.21-1.2A9.06,9.06,0,0,1,240.6,82a38.22,38.22,0,0,1,13.87,3.3l.67.29V74.41l-.31-.12a41.54,41.54,0,0,0-14-2.79A19.62,19.62,0,0,0,232,73.33,12,12,0,0,0,225.54,81c-1,3.75-.7,7,1,9.73,2.9,4.71,8.6,5.85,13.62,6.85.29.06.61.11,1,.17l.13,0c1.52.23,4.07.63,4.83,1.7a1.32,1.32,0,0,1,.19,1c-.08.47-.48.86-1.18,1.16a10.72,10.72,0,0,1-4,.59c-4.29,0-11-1.3-14.77-3.47l-.72-.41v11.44l.31.12a39.52,39.52,0,0,0,13.86,2.73q.73,0,1.45,0a21.3,21.3,0,0,0,8.77-2.15A12.32,12.32,0,0,0,256.63,102.19Z"/><rect class="cls-2" x="213.04" y="121.58" width="4.54" height="4.54" rx="2.01" ry="2.01"/><rect class="cls-2" x="267.08" y="143.79" width="4.54" height="4.54" rx="2.01" ry="2.01"/><path class="cls-2" d="M112.76,138.66c0,9.74,10.24,10.87,15,8.94v-3.87c-3.41,1.81-11.6,1.21-11.6-5.07s8-7.08,11.6-4.67v-3.87C123,127.62,112.76,128.92,112.76,138.66Z"/><path class="cls-2" d="M95.05,138.66c0,9.74,10.24,10.87,15,8.94v-3.87c-3.41,1.81-11.6,1.21-11.6-5.07s8-7.08,11.6-4.67v-3.87C105.31,127.62,95.05,128.92,95.05,138.66Z"/><path class="cls-2" d="M140.2,129.08a9.63,9.63,0,1,0,9.63,9.63A9.64,9.64,0,0,0,140.2,129.08Zm0,15.84a6.21,6.21,0,1,1,6.21-6.21A6.22,6.22,0,0,1,140.2,144.91Z"/><path class="cls-2" d="M201.74,123.85h-3.42v5.75H195V133h3.32v5.52a9.5,9.5,0,0,0,4.74,8,12.6,12.6,0,0,0,5.54,1.82v-3.44a9.1,9.1,0,0,1-3.73-1.29,6,6,0,0,1-3.13-5.06V133h6.86V129.6h-6.86Z"/><rect class="cls-2" x="213.6" y="129.61" width="3.42" height="18.73"/><path class="cls-2" d="M167.37,135.76V140c0,3.42-2.41,5.12-5.23,5.12-3.27,0-5.23-2.12-5.23-6.21v-9.25h-3.42v9.25c0,6.34,3.55,9.63,8.65,9.63a6.76,6.76,0,0,0,5.23-2.09v1.93h3.42V129.61h-3.42Z"/><path class="cls-2" d="M184,129.45a6.76,6.76,0,0,0-5.23,2.09v-1.93h-3.42v18.72h3.42V138c0-3.42,2.41-5.12,5.23-5.12,3.27,0,5.23,2.12,5.23,6.21v9.25h3.42v-9.25C192.63,132.74,189.07,129.45,184,129.45Z"/><path class="cls-2" d="M231.72,129.45a6.76,6.76,0,0,0-5.23,2.09v-1.93h-3.42v18.72h3.42V138c0-3.42,2.41-5.12,5.23-5.12,3.27,0,5.23,2.12,5.23,6.21v9.25h3.42v-9.25C240.37,132.74,236.82,129.45,231.72,129.45Z"/><path class="cls-2" d="M308.26,129.13a9.58,9.58,0,0,0-6.21,2.28V129.6h-3.42v26.06h3.42V146.1a9.62,9.62,0,1,0,6.21-17Zm0,15.84a6.21,6.21,0,1,1,6.21-6.21A6.22,6.22,0,0,1,308.26,145Z"/><path class="cls-2" d="M330.89,129.13a9.58,9.58,0,0,0-6.21,2.28V129.6h-3.42v26.06h3.42V146.1a9.62,9.62,0,1,0,6.21-17Zm0,15.84a6.21,6.21,0,1,1,6.21-6.21A6.21,6.21,0,0,1,330.89,145Z"/><path class="cls-2" d="M259.21,131.36a9.62,9.62,0,1,0,0,14.69,5.33,5.33,0,0,1-.82,2.82,7.16,7.16,0,0,1-2.31,2.25,10.61,10.61,0,0,1-10.33,0v3.72a15.1,15.1,0,0,0,5.36,1,12.75,12.75,0,0,0,6.76-1.88,9.49,9.49,0,0,0,4.75-8v-16.5h-3.42ZM253,144.92a6.21,6.21,0,1,1,6.21-6.21A6.22,6.22,0,0,1,253,144.92Z"/><path class="cls-2" d="M90.68,144.63c-.68-.58-.58-2.82-.5-4.62.14-3.13.53-7-2.28-9.25-2.42-1.9-6.64-2.53-12.73-1v3.54c6.63-1.9,9.53-.73,10.62.12s1.06,1.94,1,3.91a11.37,11.37,0,0,0-5.13-1.19c-7.18,0-8.81,3.9-8.81,6.23,0,3.15,3.66,6.2,7.81,6.2a11.22,11.22,0,0,0,6.94-2.37,4.07,4.07,0,0,0,.84,1,5,5,0,0,0,3.35,1.08,9.49,9.49,0,0,0,1.6-.15V144.7C92.08,145,91.08,145,90.68,144.63Zm-5-2.32a5.66,5.66,0,0,1-7,2.57,3,3,0,0,1-2.05-2.61c-.05-1.46,2-2.77,4.58-2.87,1.45-.05,3.42.36,4.24,1.22A1.43,1.43,0,0,1,85.64,142.31Z"/><path class="cls-2" d="M292.74,144.63c-.68-.58-.58-2.82-.5-4.62.14-3.13.53-7-2.28-9.25-2.42-1.9-6.64-2.53-12.73-1v3.54c6.63-1.9,9.53-.73,10.62.12s1.06,1.94,1,3.91a11.37,11.37,0,0,0-5.13-1.19c-7.18,0-8.81,3.9-8.81,6.23,0,3.15,3.66,6.2,7.81,6.2a11.22,11.22,0,0,0,6.94-2.37,4.08,4.08,0,0,0,.84,1,5,5,0,0,0,3.35,1.08,9.48,9.48,0,0,0,1.6-.15V144.7C294.13,145,293.14,145,292.74,144.63Zm-5-2.32a5.66,5.66,0,0,1-7,2.57,3,3,0,0,1-2.05-2.61c-.05-1.46,2-2.77,4.58-2.87,1.45-.05,3.42.36,4.24,1.22A1.43,1.43,0,0,1,287.69,142.31Z"/></svg>